<mxfile host="app.diagrams.net" agent="Mozilla/5.0 (X11; Linux x86_64) AppleWebKit/537.36 (KHTML, like Gecko) Chrome/138.0.0.0 Safari/537.36" version="28.1.0">
  <diagram name="Page-1" id="h79JQFpUs8-PHOjajy7Z">
    <mxGraphModel dx="1678" dy="848" grid="1" gridSize="10" guides="1" tooltips="1" connect="1" arrows="1" fold="1" page="1" pageScale="1" pageWidth="827" pageHeight="1169" math="0" shadow="0">
      <root>
        <mxCell id="0" />
        <mxCell id="1" parent="0" />
        <mxCell id="AcXBow3F7ltN4b7WvL1s-32" value="" style="rounded=0;whiteSpace=wrap;html=1;fillColor=none;" vertex="1" parent="1">
          <mxGeometry x="64" y="80" width="700" height="720" as="geometry" />
        </mxCell>
        <mxCell id="AcXBow3F7ltN4b7WvL1s-16" value="Skill" style="swimlane;fontStyle=0;childLayout=stackLayout;horizontal=1;startSize=30;horizontalStack=0;resizeParent=1;resizeParentMax=0;resizeLast=0;collapsible=1;marginBottom=0;whiteSpace=wrap;html=1;" vertex="1" parent="1">
          <mxGeometry x="200" y="240" width="140" height="120" as="geometry" />
        </mxCell>
        <mxCell id="AcXBow3F7ltN4b7WvL1s-17" value="Item 1" style="text;strokeColor=none;fillColor=none;align=left;verticalAlign=middle;spacingLeft=4;spacingRight=4;overflow=hidden;points=[[0,0.5],[1,0.5]];portConstraint=eastwest;rotatable=0;whiteSpace=wrap;html=1;" vertex="1" parent="AcXBow3F7ltN4b7WvL1s-16">
          <mxGeometry y="30" width="140" height="30" as="geometry" />
        </mxCell>
        <mxCell id="AcXBow3F7ltN4b7WvL1s-18" value="Item 2" style="text;strokeColor=none;fillColor=none;align=left;verticalAlign=middle;spacingLeft=4;spacingRight=4;overflow=hidden;points=[[0,0.5],[1,0.5]];portConstraint=eastwest;rotatable=0;whiteSpace=wrap;html=1;" vertex="1" parent="AcXBow3F7ltN4b7WvL1s-16">
          <mxGeometry y="60" width="140" height="30" as="geometry" />
        </mxCell>
        <mxCell id="AcXBow3F7ltN4b7WvL1s-19" value="Item 3" style="text;strokeColor=none;fillColor=none;align=left;verticalAlign=middle;spacingLeft=4;spacingRight=4;overflow=hidden;points=[[0,0.5],[1,0.5]];portConstraint=eastwest;rotatable=0;whiteSpace=wrap;html=1;" vertex="1" parent="AcXBow3F7ltN4b7WvL1s-16">
          <mxGeometry y="90" width="140" height="30" as="geometry" />
        </mxCell>
        <mxCell id="AcXBow3F7ltN4b7WvL1s-20" value="Character" style="swimlane;fontStyle=0;childLayout=stackLayout;horizontal=1;startSize=30;horizontalStack=0;resizeParent=1;resizeParentMax=0;resizeLast=0;collapsible=1;marginBottom=0;whiteSpace=wrap;html=1;" vertex="1" parent="1">
          <mxGeometry x="200" y="380" width="140" height="120" as="geometry" />
        </mxCell>
        <mxCell id="AcXBow3F7ltN4b7WvL1s-21" value="Item 1" style="text;strokeColor=none;fillColor=none;align=left;verticalAlign=middle;spacingLeft=4;spacingRight=4;overflow=hidden;points=[[0,0.5],[1,0.5]];portConstraint=eastwest;rotatable=0;whiteSpace=wrap;html=1;" vertex="1" parent="AcXBow3F7ltN4b7WvL1s-20">
          <mxGeometry y="30" width="140" height="30" as="geometry" />
        </mxCell>
        <mxCell id="AcXBow3F7ltN4b7WvL1s-22" value="Item 2" style="text;strokeColor=none;fillColor=none;align=left;verticalAlign=middle;spacingLeft=4;spacingRight=4;overflow=hidden;points=[[0,0.5],[1,0.5]];portConstraint=eastwest;rotatable=0;whiteSpace=wrap;html=1;" vertex="1" parent="AcXBow3F7ltN4b7WvL1s-20">
          <mxGeometry y="60" width="140" height="30" as="geometry" />
        </mxCell>
        <mxCell id="AcXBow3F7ltN4b7WvL1s-23" value="Item 3" style="text;strokeColor=none;fillColor=none;align=left;verticalAlign=middle;spacingLeft=4;spacingRight=4;overflow=hidden;points=[[0,0.5],[1,0.5]];portConstraint=eastwest;rotatable=0;whiteSpace=wrap;html=1;" vertex="1" parent="AcXBow3F7ltN4b7WvL1s-20">
          <mxGeometry y="90" width="140" height="30" as="geometry" />
        </mxCell>
        <mxCell id="AcXBow3F7ltN4b7WvL1s-24" value="CharacterDef" style="swimlane;fontStyle=0;childLayout=stackLayout;horizontal=1;startSize=30;horizontalStack=0;resizeParent=1;resizeParentMax=0;resizeLast=0;collapsible=1;marginBottom=0;whiteSpace=wrap;html=1;" vertex="1" parent="1">
          <mxGeometry x="200" y="520" width="140" height="120" as="geometry" />
        </mxCell>
        <mxCell id="AcXBow3F7ltN4b7WvL1s-25" value="Item 1" style="text;strokeColor=none;fillColor=none;align=left;verticalAlign=middle;spacingLeft=4;spacingRight=4;overflow=hidden;points=[[0,0.5],[1,0.5]];portConstraint=eastwest;rotatable=0;whiteSpace=wrap;html=1;" vertex="1" parent="AcXBow3F7ltN4b7WvL1s-24">
          <mxGeometry y="30" width="140" height="30" as="geometry" />
        </mxCell>
        <mxCell id="AcXBow3F7ltN4b7WvL1s-26" value="Item 2" style="text;strokeColor=none;fillColor=none;align=left;verticalAlign=middle;spacingLeft=4;spacingRight=4;overflow=hidden;points=[[0,0.5],[1,0.5]];portConstraint=eastwest;rotatable=0;whiteSpace=wrap;html=1;" vertex="1" parent="AcXBow3F7ltN4b7WvL1s-24">
          <mxGeometry y="60" width="140" height="30" as="geometry" />
        </mxCell>
        <mxCell id="AcXBow3F7ltN4b7WvL1s-27" value="Item 3" style="text;strokeColor=none;fillColor=none;align=left;verticalAlign=middle;spacingLeft=4;spacingRight=4;overflow=hidden;points=[[0,0.5],[1,0.5]];portConstraint=eastwest;rotatable=0;whiteSpace=wrap;html=1;" vertex="1" parent="AcXBow3F7ltN4b7WvL1s-24">
          <mxGeometry y="90" width="140" height="30" as="geometry" />
        </mxCell>
        <mxCell id="AcXBow3F7ltN4b7WvL1s-28" value="AbstractEffect" style="swimlane;fontStyle=0;childLayout=stackLayout;horizontal=1;startSize=30;horizontalStack=0;resizeParent=1;resizeParentMax=0;resizeLast=0;collapsible=1;marginBottom=0;whiteSpace=wrap;html=1;" vertex="1" parent="1">
          <mxGeometry x="360" y="240" width="140" height="120" as="geometry" />
        </mxCell>
        <mxCell id="AcXBow3F7ltN4b7WvL1s-29" value="Item 1" style="text;strokeColor=none;fillColor=none;align=left;verticalAlign=middle;spacingLeft=4;spacingRight=4;overflow=hidden;points=[[0,0.5],[1,0.5]];portConstraint=eastwest;rotatable=0;whiteSpace=wrap;html=1;" vertex="1" parent="AcXBow3F7ltN4b7WvL1s-28">
          <mxGeometry y="30" width="140" height="30" as="geometry" />
        </mxCell>
        <mxCell id="AcXBow3F7ltN4b7WvL1s-30" value="Item 2" style="text;strokeColor=none;fillColor=none;align=left;verticalAlign=middle;spacingLeft=4;spacingRight=4;overflow=hidden;points=[[0,0.5],[1,0.5]];portConstraint=eastwest;rotatable=0;whiteSpace=wrap;html=1;" vertex="1" parent="AcXBow3F7ltN4b7WvL1s-28">
          <mxGeometry y="60" width="140" height="30" as="geometry" />
        </mxCell>
        <mxCell id="AcXBow3F7ltN4b7WvL1s-31" value="Item 3" style="text;strokeColor=none;fillColor=none;align=left;verticalAlign=middle;spacingLeft=4;spacingRight=4;overflow=hidden;points=[[0,0.5],[1,0.5]];portConstraint=eastwest;rotatable=0;whiteSpace=wrap;html=1;" vertex="1" parent="AcXBow3F7ltN4b7WvL1s-28">
          <mxGeometry y="90" width="140" height="30" as="geometry" />
        </mxCell>
        <mxCell id="AcXBow3F7ltN4b7WvL1s-33" value="Data Models" style="text;html=1;align=center;verticalAlign=middle;whiteSpace=wrap;rounded=0;" vertex="1" parent="1">
          <mxGeometry x="64" y="90" width="60" height="30" as="geometry" />
        </mxCell>
        <mxCell id="AcXBow3F7ltN4b7WvL1s-40" style="edgeStyle=orthogonalEdgeStyle;rounded=0;orthogonalLoop=1;jettySize=auto;html=1;exitX=0.5;exitY=1;exitDx=0;exitDy=0;exitPerimeter=0;entryX=0.5;entryY=0;entryDx=0;entryDy=0;" edge="1" parent="1" source="AcXBow3F7ltN4b7WvL1s-38" target="AcXBow3F7ltN4b7WvL1s-39">
          <mxGeometry relative="1" as="geometry" />
        </mxCell>
        <mxCell id="AcXBow3F7ltN4b7WvL1s-38" value="Battle Start" style="strokeWidth=2;html=1;shape=mxgraph.flowchart.start_1;whiteSpace=wrap;" vertex="1" parent="1">
          <mxGeometry x="1180" y="180" width="100" height="60" as="geometry" />
        </mxCell>
        <mxCell id="AcXBow3F7ltN4b7WvL1s-39" value="Pre-battle prep" style="rounded=1;whiteSpace=wrap;html=1;absoluteArcSize=1;arcSize=14;strokeWidth=2;" vertex="1" parent="1">
          <mxGeometry x="1180" y="320" width="100" height="100" as="geometry" />
        </mxCell>
        <mxCell id="AcXBow3F7ltN4b7WvL1s-42" style="edgeStyle=orthogonalEdgeStyle;rounded=0;orthogonalLoop=1;jettySize=auto;html=1;exitX=0.5;exitY=1;exitDx=0;exitDy=0;entryX=0.5;entryY=0;entryDx=0;entryDy=0;" edge="1" parent="1" source="AcXBow3F7ltN4b7WvL1s-39" target="AcXBow3F7ltN4b7WvL1s-43">
          <mxGeometry relative="1" as="geometry">
            <mxPoint x="1230" y="500" as="targetPoint" />
          </mxGeometry>
        </mxCell>
        <mxCell id="AcXBow3F7ltN4b7WvL1s-43" value="Start a new round" style="rounded=1;whiteSpace=wrap;html=1;absoluteArcSize=1;arcSize=14;strokeWidth=2;" vertex="1" parent="1">
          <mxGeometry x="1150" y="530" width="160" height="80" as="geometry" />
        </mxCell>
        <mxCell id="AcXBow3F7ltN4b7WvL1s-46" value="End" style="strokeWidth=2;html=1;shape=mxgraph.flowchart.terminator;whiteSpace=wrap;" vertex="1" parent="1">
          <mxGeometry x="1180" y="1570" width="100" height="60" as="geometry" />
        </mxCell>
        <mxCell id="AcXBow3F7ltN4b7WvL1s-49" value="" style="endArrow=classic;html=1;rounded=0;exitX=0.5;exitY=1;exitDx=0;exitDy=0;entryX=0.5;entryY=0;entryDx=0;entryDy=0;entryPerimeter=0;" edge="1" parent="1" source="AcXBow3F7ltN4b7WvL1s-43" target="AcXBow3F7ltN4b7WvL1s-50">
          <mxGeometry width="50" height="50" relative="1" as="geometry">
            <mxPoint x="1180" y="810" as="sourcePoint" />
            <mxPoint x="1230" y="740" as="targetPoint" />
          </mxGeometry>
        </mxCell>
        <mxCell id="AcXBow3F7ltN4b7WvL1s-52" style="edgeStyle=orthogonalEdgeStyle;rounded=0;orthogonalLoop=1;jettySize=auto;html=1;exitX=1;exitY=0.5;exitDx=0;exitDy=0;exitPerimeter=0;entryX=1;entryY=0.5;entryDx=0;entryDy=0;" edge="1" parent="1" source="AcXBow3F7ltN4b7WvL1s-50" target="AcXBow3F7ltN4b7WvL1s-43">
          <mxGeometry relative="1" as="geometry">
            <mxPoint x="1420" y="580" as="targetPoint" />
            <Array as="points">
              <mxPoint x="1370" y="735" />
              <mxPoint x="1370" y="570" />
            </Array>
          </mxGeometry>
        </mxCell>
        <mxCell id="AcXBow3F7ltN4b7WvL1s-53" value="Yes" style="edgeLabel;html=1;align=center;verticalAlign=middle;resizable=0;points=[];" vertex="1" connectable="0" parent="AcXBow3F7ltN4b7WvL1s-52">
          <mxGeometry x="0.114" y="3" relative="1" as="geometry">
            <mxPoint as="offset" />
          </mxGeometry>
        </mxCell>
        <mxCell id="AcXBow3F7ltN4b7WvL1s-50" value="Have all&amp;nbsp;&lt;div&gt;Characters&lt;/div&gt;&lt;div&gt;had a turn?&lt;/div&gt;" style="strokeWidth=2;html=1;shape=mxgraph.flowchart.decision;whiteSpace=wrap;" vertex="1" parent="1">
          <mxGeometry x="1165" y="670" width="130" height="130" as="geometry" />
        </mxCell>
        <mxCell id="AcXBow3F7ltN4b7WvL1s-66" style="edgeStyle=orthogonalEdgeStyle;rounded=0;orthogonalLoop=1;jettySize=auto;html=1;exitX=0.5;exitY=1;exitDx=0;exitDy=0;entryX=1;entryY=0.5;entryDx=0;entryDy=0;" edge="1" parent="1" source="AcXBow3F7ltN4b7WvL1s-51" target="AcXBow3F7ltN4b7WvL1s-65">
          <mxGeometry relative="1" as="geometry" />
        </mxCell>
        <mxCell id="AcXBow3F7ltN4b7WvL1s-51" value="Run Enemy AI&lt;div&gt;to pick Skill&lt;/div&gt;" style="rounded=1;whiteSpace=wrap;html=1;absoluteArcSize=1;arcSize=14;strokeWidth=2;" vertex="1" parent="1">
          <mxGeometry x="1340" y="990" width="160" height="80" as="geometry" />
        </mxCell>
        <mxCell id="AcXBow3F7ltN4b7WvL1s-54" value="Is the current&amp;nbsp;&lt;div&gt;character&lt;div&gt;AI controlled?&lt;/div&gt;&lt;/div&gt;" style="strokeWidth=2;html=1;shape=mxgraph.flowchart.decision;whiteSpace=wrap;" vertex="1" parent="1">
          <mxGeometry x="1165" y="860" width="130" height="130" as="geometry" />
        </mxCell>
        <mxCell id="AcXBow3F7ltN4b7WvL1s-55" style="edgeStyle=orthogonalEdgeStyle;rounded=0;orthogonalLoop=1;jettySize=auto;html=1;exitX=0.5;exitY=1;exitDx=0;exitDy=0;exitPerimeter=0;entryX=0.5;entryY=0;entryDx=0;entryDy=0;entryPerimeter=0;" edge="1" parent="1" source="AcXBow3F7ltN4b7WvL1s-50" target="AcXBow3F7ltN4b7WvL1s-54">
          <mxGeometry relative="1" as="geometry" />
        </mxCell>
        <mxCell id="AcXBow3F7ltN4b7WvL1s-56" value="No" style="edgeLabel;html=1;align=center;verticalAlign=middle;resizable=0;points=[];" vertex="1" connectable="0" parent="AcXBow3F7ltN4b7WvL1s-55">
          <mxGeometry x="-0.45" y="-1" relative="1" as="geometry">
            <mxPoint as="offset" />
          </mxGeometry>
        </mxCell>
        <mxCell id="AcXBow3F7ltN4b7WvL1s-58" value="" style="endArrow=classic;html=1;rounded=0;exitX=1;exitY=0.5;exitDx=0;exitDy=0;exitPerimeter=0;entryX=0.5;entryY=0;entryDx=0;entryDy=0;" edge="1" parent="1" source="AcXBow3F7ltN4b7WvL1s-54" target="AcXBow3F7ltN4b7WvL1s-51">
          <mxGeometry width="50" height="50" relative="1" as="geometry">
            <mxPoint x="940" y="1100" as="sourcePoint" />
            <mxPoint x="990" y="1050" as="targetPoint" />
            <Array as="points">
              <mxPoint x="1420" y="925" />
            </Array>
          </mxGeometry>
        </mxCell>
        <mxCell id="AcXBow3F7ltN4b7WvL1s-60" value="Yes" style="edgeLabel;html=1;align=center;verticalAlign=middle;resizable=0;points=[];" vertex="1" connectable="0" parent="AcXBow3F7ltN4b7WvL1s-58">
          <mxGeometry x="-0.1018" y="3" relative="1" as="geometry">
            <mxPoint as="offset" />
          </mxGeometry>
        </mxCell>
        <mxCell id="AcXBow3F7ltN4b7WvL1s-61" value="" style="endArrow=classic;html=1;rounded=0;exitX=0;exitY=0.5;exitDx=0;exitDy=0;exitPerimeter=0;entryX=0.5;entryY=0;entryDx=0;entryDy=0;" edge="1" parent="1" source="AcXBow3F7ltN4b7WvL1s-54" target="AcXBow3F7ltN4b7WvL1s-63">
          <mxGeometry width="50" height="50" relative="1" as="geometry">
            <mxPoint x="1020" y="940" as="sourcePoint" />
            <mxPoint x="1040" y="990" as="targetPoint" />
            <Array as="points">
              <mxPoint x="1045" y="925" />
            </Array>
          </mxGeometry>
        </mxCell>
        <mxCell id="AcXBow3F7ltN4b7WvL1s-62" value="No" style="edgeLabel;html=1;align=center;verticalAlign=middle;resizable=0;points=[];" vertex="1" connectable="0" parent="AcXBow3F7ltN4b7WvL1s-61">
          <mxGeometry x="-0.2842" y="-2" relative="1" as="geometry">
            <mxPoint as="offset" />
          </mxGeometry>
        </mxCell>
        <mxCell id="AcXBow3F7ltN4b7WvL1s-63" value="Signal frontend to select skill" style="html=1;strokeWidth=2;shape=manualInput;whiteSpace=wrap;rounded=1;size=26;arcSize=11;" vertex="1" parent="1">
          <mxGeometry x="980" y="980" width="130" height="80" as="geometry" />
        </mxCell>
        <mxCell id="AcXBow3F7ltN4b7WvL1s-64" value="" style="endArrow=classic;html=1;rounded=0;exitX=0.5;exitY=1;exitDx=0;exitDy=0;entryX=0;entryY=0.5;entryDx=0;entryDy=0;" edge="1" parent="1" source="AcXBow3F7ltN4b7WvL1s-63" target="AcXBow3F7ltN4b7WvL1s-65">
          <mxGeometry width="50" height="50" relative="1" as="geometry">
            <mxPoint x="1200" y="1170" as="sourcePoint" />
            <mxPoint x="1045" y="1140" as="targetPoint" />
            <Array as="points">
              <mxPoint x="1045" y="1130" />
            </Array>
          </mxGeometry>
        </mxCell>
        <mxCell id="AcXBow3F7ltN4b7WvL1s-68" style="edgeStyle=orthogonalEdgeStyle;rounded=0;orthogonalLoop=1;jettySize=auto;html=1;exitX=0.5;exitY=1;exitDx=0;exitDy=0;" edge="1" parent="1" source="AcXBow3F7ltN4b7WvL1s-65" target="AcXBow3F7ltN4b7WvL1s-67">
          <mxGeometry relative="1" as="geometry" />
        </mxCell>
        <mxCell id="AcXBow3F7ltN4b7WvL1s-65" value="Run skill" style="rounded=1;whiteSpace=wrap;html=1;" vertex="1" parent="1">
          <mxGeometry x="1170" y="1100" width="120" height="60" as="geometry" />
        </mxCell>
        <mxCell id="AcXBow3F7ltN4b7WvL1s-67" value="Signal frontend,&lt;div&gt;wait for animations&lt;/div&gt;&lt;div&gt;to complete&lt;/div&gt;" style="strokeWidth=2;html=1;shape=mxgraph.flowchart.delay;whiteSpace=wrap;" vertex="1" parent="1">
          <mxGeometry x="1160" y="1210" width="140" height="80" as="geometry" />
        </mxCell>
        <mxCell id="AcXBow3F7ltN4b7WvL1s-73" style="edgeStyle=orthogonalEdgeStyle;rounded=0;orthogonalLoop=1;jettySize=auto;html=1;exitX=0.5;exitY=1;exitDx=0;exitDy=0;exitPerimeter=0;" edge="1" parent="1" source="AcXBow3F7ltN4b7WvL1s-69" target="AcXBow3F7ltN4b7WvL1s-46">
          <mxGeometry relative="1" as="geometry" />
        </mxCell>
        <mxCell id="AcXBow3F7ltN4b7WvL1s-75" value="Yes" style="edgeLabel;html=1;align=center;verticalAlign=middle;resizable=0;points=[];" vertex="1" connectable="0" parent="AcXBow3F7ltN4b7WvL1s-73">
          <mxGeometry x="-0.3029" y="1" relative="1" as="geometry">
            <mxPoint as="offset" />
          </mxGeometry>
        </mxCell>
        <mxCell id="AcXBow3F7ltN4b7WvL1s-69" value="Has the battle&lt;div&gt;finished?&lt;/div&gt;" style="strokeWidth=2;html=1;shape=mxgraph.flowchart.decision;whiteSpace=wrap;" vertex="1" parent="1">
          <mxGeometry x="1165" y="1360" width="130" height="130" as="geometry" />
        </mxCell>
        <mxCell id="AcXBow3F7ltN4b7WvL1s-70" style="edgeStyle=orthogonalEdgeStyle;rounded=0;orthogonalLoop=1;jettySize=auto;html=1;exitX=0.5;exitY=1;exitDx=0;exitDy=0;exitPerimeter=0;entryX=0.5;entryY=0;entryDx=0;entryDy=0;entryPerimeter=0;" edge="1" parent="1" source="AcXBow3F7ltN4b7WvL1s-67" target="AcXBow3F7ltN4b7WvL1s-69">
          <mxGeometry relative="1" as="geometry" />
        </mxCell>
        <mxCell id="AcXBow3F7ltN4b7WvL1s-71" style="edgeStyle=orthogonalEdgeStyle;rounded=0;orthogonalLoop=1;jettySize=auto;html=1;exitX=0;exitY=0.5;exitDx=0;exitDy=0;exitPerimeter=0;entryX=0;entryY=0.5;entryDx=0;entryDy=0;entryPerimeter=0;" edge="1" parent="1" source="AcXBow3F7ltN4b7WvL1s-69" target="AcXBow3F7ltN4b7WvL1s-50">
          <mxGeometry relative="1" as="geometry">
            <Array as="points">
              <mxPoint x="970" y="1425" />
              <mxPoint x="970" y="735" />
            </Array>
          </mxGeometry>
        </mxCell>
        <mxCell id="AcXBow3F7ltN4b7WvL1s-72" value="No" style="edgeLabel;html=1;align=center;verticalAlign=middle;resizable=0;points=[];" vertex="1" connectable="0" parent="AcXBow3F7ltN4b7WvL1s-71">
          <mxGeometry x="-0.8485" relative="1" as="geometry">
            <mxPoint x="1" as="offset" />
          </mxGeometry>
        </mxCell>
      </root>
    </mxGraphModel>
  </diagram>
</mxfile>
